<svg id="noun-emotional-6152612" xmlns="http://www.w3.org/2000/svg" width="104.278" height="104.986" viewBox="0 0 104.278 104.986">
  <path id="Path_26" data-name="Path 26" d="M41.2,57.239h9.272a1.769,1.769,0,1,0,0-3.539H41.2a1.769,1.769,0,1,0,0,3.539Z" transform="translate(0.283 3.157)"/>
  <path id="Path_27" data-name="Path 27" d="M38.624,110.486c7.078,0,26.235-7.325,30.8-24.536a40.968,40.968,0,0,0,10.805,1.427,30.764,30.764,0,0,0,12.2-2.147h0c6.582-3.2,21.139-18.721,16.833-36.733C105.131,30.862,89.8,7.269,89.123,6.3a1.764,1.764,0,0,0-3.185.519c0,.118-3.35,11.985-21.233,20.561h0c-17.694,8.481-29.184,3.7-29.29,3.657A1.758,1.758,0,0,0,33.056,33.2s1.852,5.709,4.86,13.094c-19.122-.248-27.131-9.26-27.237-9.343a1.769,1.769,0,0,0-3.2.991c-.153,1.18-3.787,29.089,0,46.748C11.421,102.819,31.357,110.486,38.624,110.486ZM66.2,30.59l.083-.059c13.518-6.5,19.346-14.84,21.658-19.417,4.211,6.865,14.71,24.678,17.93,38.173,3.8,15.878-9.331,30.045-14.969,32.746h0c-3.055,1.451-11.973,2.9-20.714.425a90.832,90.832,0,0,0,1.18-11.8c1.18-2.5,3.834-6.122,9.437-9.7,11.9-4.081,17.281.13,17.541.342a1.817,1.817,0,0,0,1.18.413,1.793,1.793,0,0,0,1.345-.613,1.769,1.769,0,0,0-.189-2.5c-.283-.236-7-5.816-21.044-.979a1.911,1.911,0,0,0-.484.2,34.693,34.693,0,0,0-7.632,6.37A224.739,224.739,0,0,0,69.742,37.94a1.769,1.769,0,0,0-3.1-.908c-.071.083-7.384,8.411-25.043,9.284C39.78,41.82,38.34,37.94,37.42,35.344,42.457,36.418,52.649,37.1,66.2,30.59ZM10.6,41.738c4.093,3.138,12.976,8.139,28.028,8.139h2.159c13.743-.46,21.976-5.131,25.869-8.116.826,7.88,2.489,27.839-.212,41.393h0a1.805,1.805,0,0,0-.083.425v.342c-3.515,15.937-21.481,23.026-27.733,23.026s-24.218-7.09-27.662-23C8.036,70.344,9.758,49.736,10.6,41.738Z" transform="translate(-5.764 -5.501)"/>
  <path id="Path_28" data-name="Path 28" d="M18.719,57.239h9.272a1.769,1.769,0,1,0,0-3.539H18.719a1.769,1.769,0,1,0,0,3.539Z" transform="translate(-3.755 3.157)"/>
  <path id="Path_29" data-name="Path 29" d="M20.869,69.782a1.769,1.769,0,0,0-3.232,1.427c.153.342,3.81,8.257,18.673,10h.4c14.863-1.687,18.52-9.661,18.673-10a1.769,1.769,0,1,0-3.233-1.439c-.129.271-3.137,6.417-15.641,7.9C24.043,76.187,21.011,70.077,20.869,69.782Z" transform="translate(-3.652 5.855)"/>
  <path id="Path_30" data-name="Path 30" d="M69.109,37.149a1.711,1.711,0,0,0,.755-.165l8.364-4.011a1.773,1.773,0,0,0-1.534-3.2l-8.352,4.011a1.769,1.769,0,0,0,.767,3.362Z" transform="translate(5.297 -1.171)"/>
</svg>
