<svg id="noun-behavioral-health-5085126" xmlns="http://www.w3.org/2000/svg" width="89.182" height="103.296" viewBox="0 0 89.182 103.296">
  <path id="Path_24" data-name="Path 24" d="M116.492,158.116l2.748,1.962a2.081,2.081,0,0,0,1.212.387h4.108a2.084,2.084,0,0,0,0-4.168h-3.439l-1.331-.953v-6.907a2.086,2.086,0,0,0-1.253-1.911l-7.52-3.263,5.969-14.7a2.089,2.089,0,0,0,.143-.991,37.156,37.156,0,0,1,36.964-40.885h.268a36.945,36.945,0,0,1,18.354,5.037,37.664,37.664,0,0,1,13.2,13.007,2.084,2.084,0,0,0,3.567-2.155,41.812,41.812,0,0,0-14.665-14.448,41.293,41.293,0,0,0-62.041,35.711c0,1.206.054,2.423.158,3.626l-6.544,16.118a2.086,2.086,0,0,0,1.1,2.7l8.131,3.528v6.612a2.088,2.088,0,0,0,.872,1.7Z" transform="translate(-106.234 -82.516)"/>
  <path id="Path_25" data-name="Path 25" d="M218.3,162.8a41.148,41.148,0,0,0-1.34-10.828,2.083,2.083,0,0,0-2.016-1.554H196.482L192.225,138.8a2.084,2.084,0,0,0-3.942.083L178.59,169.29l-8.205-26.366a2.084,2.084,0,0,0-3.954-.08l-4,11.248h-9.884a2.084,2.084,0,1,0,0,4.168H163.9a2.086,2.086,0,0,0,1.965-1.387l2.4-6.74,8.312,26.711a2.082,2.082,0,0,0,1.983,1.465h.006a2.085,2.085,0,0,0,1.986-1.45l9.854-30.912,2.665,7.276a2.084,2.084,0,0,0,1.956,1.367H213.3a37.165,37.165,0,0,1-4.409,26.851,37.813,37.813,0,0,0-4.525,27.577l2.01,9.2a1.643,1.643,0,0,1-1.6,1.995H171.12l-.56-6.788a2.079,2.079,0,0,0-2.185-1.908l-17.774.917a1.832,1.832,0,0,1-1.926-1.828v-2.76a2.084,2.084,0,0,0-.795-1.637l-5.677-4.475A2.084,2.084,0,1,0,139.625,205l4.885,3.846V210.6a6,6,0,0,0,6.309,5.99l15.755-.813.554,6.687a2.083,2.083,0,0,0,2.078,1.911h35.571a5.814,5.814,0,0,0,5.677-7.053l-2.01-9.2a33.665,33.665,0,0,1,4.031-24.549,41.282,41.282,0,0,0,5.832-20.774Z" transform="translate(-129.125 -121.08)"/>
</svg>
