<svg xmlns="http://www.w3.org/2000/svg" width="88.558" height="87.567" viewBox="0 0 88.558 87.567">
  <g id="noun-history-6771158" transform="translate(-6.251 -6.941)">
    <g id="Group_6" data-name="Group 6">
      <path id="Path_31" data-name="Path 31" d="M51.012,6.941c-1.016,0-2.031.047-3.242.1h0A43.078,43.078,0,0,0,31.95,11.316a41.272,41.272,0,0,0-8.133,5.137,3.581,3.581,0,0,0-.441.531c-3.23-1.586-8.254-3.359-11.879-1.3C6.622,18.441,6.251,27.059,6.251,29.637s.383,11.172,5.25,13.922a7.706,7.706,0,0,0,3.84.922A22.221,22.221,0,0,0,25.4,41.18c2.219-1.3,9.465-5.957,9.465-11.562h0A11.763,11.763,0,0,0,30.153,21.5a34.361,34.361,0,0,1,5.211-3.16,35.284,35.284,0,0,1,12.965-3.508c.895-.043,1.789-.082,2.684-.082a35.984,35.984,0,1,1-33.649,48.64,3.909,3.909,0,0,0-7.32,2.746,43.784,43.784,0,1,0,40.969-59.2Z"/>
      <path id="Path_32" data-name="Path 32" d="M50,33.594A3.913,3.913,0,0,0,46.094,37.5V50a3.88,3.88,0,0,0,1.145,2.762l9.375,9.375a3.906,3.906,0,1,0,5.523-5.523l-8.23-8.23V37.5A3.913,3.913,0,0,0,50,33.594Z"/>
    </g>
  </g>
</svg>
