<svg xmlns="http://www.w3.org/2000/svg" xmlns:xlink="http://www.w3.org/1999/xlink" width="302.668" height="183.47" viewBox="0 0 302.668 183.47">
  <defs>
    <linearGradient id="linear-gradient" y1="0.5" x2="1" y2="0.5" gradientUnits="objectBoundingBox">
      <stop offset="0" stop-color="#0d4174"/>
      <stop offset="0.315" stop-color="#be45ff"/>
      <stop offset="0.69" stop-color="#ff3cda"/>
      <stop offset="1" stop-color="#e70af8"/>
      <stop offset="1" stop-color="#3e013e"/>
    </linearGradient>
    <linearGradient id="linear-gradient-2" x1="0.282" y1="0.5" x2="1" y2="0.5" gradientUnits="objectBoundingBox">
      <stop offset="0" stop-color="#000aff"/>
      <stop offset="0.222" stop-color="#0020fc"/>
      <stop offset="1" stop-color="#00ffd8"/>
    </linearGradient>
    <filter id="Path_15" x="0" y="0" width="124.538" height="180.032" filterUnits="userSpaceOnUse">
      <feOffset dy="3" input="SourceAlpha"/>
      <feGaussianBlur stdDeviation="10" result="blur"/>
      <feFlood flood-opacity="0.443"/>
      <feComposite operator="in" in2="blur"/>
      <feComposite in="SourceGraphic"/>
    </filter>
  </defs>
  <g id="Group_4" data-name="Group 4" transform="translate(-708.798 -383.685)">
    <path id="Union_3" data-name="Union 3" d="M159.9,166.868H44.788A62.514,62.514,0,0,1,30,165.263a37.156,37.156,0,0,1-11.111-4.608c-5.973-3.8-10.32-9.356-13.29-16.993-2.554-6.566-4.1-14.607-4.882-25.3C.022,108.814.03,98.321.039,87.213q0-1.878,0-3.778C-.248,64.553.976,49.713,3.779,38.066c2.641-10.974,6.706-19.138,12.426-24.957a35.359,35.359,0,0,1,10.168-7.2A51.035,51.035,0,0,1,38.76,1.985C47.994.191,58.641.023,69.651,0H69.7c3.493,0,8.732.834,15.572,2.479C90.739,3.8,97.241,5.629,104.6,7.933c12.5,3.914,23.309,7.894,23.417,7.934l.006,0c.394-.166,9.764-4.1,20.661-7.931,6.55-2.3,12.408-4.137,17.41-5.454C172.345.834,177.27,0,180.733,0c17.3,0,28.929.962,37.718,3.119,9.491,2.329,16.038,6.19,20.6,12.151a37.287,37.287,0,0,1,5.557,10.773,80.126,80.126,0,0,1,3.287,14.6c1.554,10.915,2.089,24.465,2.448,42.789,0,3.2.018,6.385.035,9.465.077,13.733.148,26.7-1.374,37.651a64.31,64.31,0,0,1-3.679,14.91,33.212,33.212,0,0,1-7.263,11.449c-6.664,6.7-16.525,9.958-30.148,9.958ZM89.086,45.2a41.747,41.747,0,0,0,16.25,80.212h67.451a14.626,14.626,0,0,0,14.626-14.626v-34.4a14.626,14.626,0,0,0-29.252,0v26.868c-.679,2.535-2.953,5.954-6.755,10.163-2.869-4.545-4.324-8.748-4.324-12.491V83.664a41.77,41.77,0,0,0-58-38.466ZM163.48,33.936a13.44,13.44,0,0,0,9.5,22.943h.99a13.44,13.44,0,0,0,0-26.879h-.99A13.351,13.351,0,0,0,163.48,33.936Zm-82.073,49.5a24.613,24.613,0,1,1,24.612,24.613A24.613,24.613,0,0,1,81.407,83.434Z" transform="translate(761.055 400.287)" fill="url(#linear-gradient)"/>
    <g transform="matrix(1, 0, 0, 1, 708.8, 383.68)" filter="url(#Path_15)">
      <path id="Path_15-2" data-name="Path 15" d="M59.574-22.9C69.986-35.6,88.681-19.072,87.094.054,84.618,29.9,20.767,7.732,22.694,51.306c4.465,28.621,16.92,27.942,24.669,41.364,0,0-2.31-23.68-1.61-34.559C43.759,9.324,49.936-12.374,59.574-22.9Z" transform="translate(7.35 54.36)" fill="url(#linear-gradient-2)"/>
    </g>
  </g>
</svg>
