<svg xmlns="http://www.w3.org/2000/svg" width="20.132" height="24.665" viewBox="0 0 20.132 24.665">
  <g id="Icon_akar-file" data-name="Icon akar-file" transform="translate(1 1)">
    <path id="Path_17" data-name="Path 17" d="M6,5.267V23.4a2.267,2.267,0,0,0,2.267,2.267h13.6A2.267,2.267,0,0,0,24.132,23.4V10.187a2.266,2.266,0,0,0-.682-1.62L18.418,3.646A2.267,2.267,0,0,0,16.834,3H8.267A2.267,2.267,0,0,0,6,5.267Zm5.666,10.2h6.8M11.666,20h3.4" transform="translate(-6 -3)" fill="none" stroke="#000" stroke-linecap="round" stroke-linejoin="round" stroke-width="2"/>
    <path id="Path_18" data-name="Path 18" d="M21,3V7.533A2.267,2.267,0,0,0,23.267,9.8H27.8" transform="translate(-9.667 -3)" fill="none" stroke="#000" stroke-linejoin="round" stroke-width="2"/>
  </g>
</svg>
