<svg xmlns="http://www.w3.org/2000/svg" width="11.974" height="17.417" viewBox="0 0 11.974 17.417">
  <path id="Icon_fa-solid-microphone" data-name="Icon fa-solid-microphone" d="M7.112,0A3.267,3.267,0,0,0,3.846,3.266V8.709a3.266,3.266,0,1,0,6.531,0V3.266A3.267,3.267,0,0,0,7.112,0ZM2.758,7.348a.816.816,0,1,0-1.633,0V8.709A5.989,5.989,0,0,0,6.3,14.641v1.143H4.663a.816.816,0,1,0,0,1.633h4.9a.816.816,0,1,0,0-1.633H7.929V14.641A5.989,5.989,0,0,0,13.1,8.709V7.348a.816.816,0,1,0-1.633,0V8.709a4.354,4.354,0,0,1-8.709,0Z" transform="translate(-1.125)"/>
</svg>
