<svg xmlns="http://www.w3.org/2000/svg" width="20.533" height="17.966" viewBox="0 0 20.533 17.966">
  <path id="Icon_fa-regular-image" data-name="Icon fa-regular-image" d="M17.966,4.175a.644.644,0,0,1,.642.642V17.642l-.2-.261-5.454-7.058a.965.965,0,0,0-1.524,0L8.1,14.63,6.878,12.917a.96.96,0,0,0-1.564,0L2.105,17.413l-.18.249V4.817a.644.644,0,0,1,.642-.642ZM2.567,2.25A2.569,2.569,0,0,0,0,4.817V17.65a2.569,2.569,0,0,0,2.567,2.567h15.4a2.569,2.569,0,0,0,2.567-2.567V4.817A2.569,2.569,0,0,0,17.966,2.25Zm3.208,7.7A1.925,1.925,0,1,0,3.85,8.025,1.925,1.925,0,0,0,5.775,9.95Z" transform="translate(0 -2.25)"/>
</svg>
