<svg xmlns="http://www.w3.org/2000/svg" width="22.616" height="15.744" viewBox="0 0 22.616 15.744">
  <path id="Icon_fa-solid-video" data-name="Icon fa-solid-video" d="M0,6.791A2.293,2.293,0,0,1,2.291,4.5h9.163a2.293,2.293,0,0,1,2.291,2.291v9.163a2.293,2.293,0,0,1-2.291,2.291H2.291A2.293,2.293,0,0,1,0,15.953ZM20.011,5.781a1.146,1.146,0,0,1,.6,1.009v9.163a1.146,1.146,0,0,1-1.782.952L15.4,14.615l-.508-.34V8.469l.508-.34,3.436-2.291A1.149,1.149,0,0,1,20.011,5.781Z" transform="translate(1 -3.5)" fill="none" stroke="#000" stroke-width="2"/>
</svg>
