<svg xmlns="http://www.w3.org/2000/svg" width="49.755" height="49.698" viewBox="0 0 49.755 49.698">
  <g id="noun-website-6782016" transform="translate(-5.207 -5.25)">
    <g id="Group_7" data-name="Group 7" transform="translate(5.207 5.25)">
      <path id="Path_33" data-name="Path 33" d="M72.443,55.539a2.95,2.95,0,0,0-.717-.3L54.62,49.527a4.047,4.047,0,0,0-5.132,5.132L55.2,71.764a4.171,4.171,0,0,0,.277.67,4.023,4.023,0,0,0,3.561,2.126h.371a3.953,3.953,0,0,0,3.468-2.75L65,65.453a.589.589,0,0,1,.371-.371l6.356-2.126A3.968,3.968,0,0,0,74.5,59.489a4.065,4.065,0,0,0-2.057-3.907Z" transform="translate(-24.821 -24.862)"/>
      <path id="Path_34" data-name="Path 34" d="M33.827,53.91a5.356,5.356,0,0,1-.44-1.04l-.739-2.243a4.97,4.97,0,0,1-2.2.832h-.808c-3.006-.3-6.148-4.23-7.93-10.379h7.767l-1.155-3.468h-7.4a42.488,42.488,0,0,1,0-15.027H39.239a40.6,40.6,0,0,1,.624,6.519l3.513,1.179V30.1a45.9,45.9,0,0,0-.6-7.514h7.282A20.96,20.96,0,0,1,51.468,30.1a22.929,22.929,0,0,1-.184,2.82l1.619.531a4.818,4.818,0,0,1,1.11.485c.208.115.392.254.579.371a25.339,25.339,0,0,0,.371-4.207A24.916,24.916,0,0,0,30.921,5.3,6.808,6.808,0,0,0,30.2,5.25h-.139a3.212,3.212,0,0,0-.579.024h-.139a24.814,24.814,0,0,0-.1,49.607c.254.024.531.046.808.046h.624a23.938,23.938,0,0,0,3.63-.347c-.163-.232-.347-.416-.485-.648ZM48.343,19.1H42.032a27.012,27.012,0,0,0-3.769-8.714A21.787,21.787,0,0,1,48.343,19.1ZM29.666,8.694h.808c3.006.3,6.148,4.23,7.93,10.379H21.715c1.779-6.148,4.924-10.08,7.951-10.4Zm-7.815,1.712A27.316,27.316,0,0,0,18.106,19.1H11.8A21.7,21.7,0,0,1,21.851,10.406ZM8.674,30.077a20.959,20.959,0,0,1,1.411-7.514h7.282a47.323,47.323,0,0,0,0,15.027H10.085a20.96,20.96,0,0,1-1.411-7.514Zm3.1,10.981h6.311a27.012,27.012,0,0,0,3.769,8.714A21.787,21.787,0,0,1,11.774,41.058Z" transform="translate(-5.207 -5.25)"/>
    </g>
  </g>
</svg>
